HIERARCHY
ROOT root
{
	OFFSET 0.000000 0.000000 0.000000
	CHANNELS 6 Xposition Yposition Zposition Zrotation Yrotation Xrotation
	JOINT lhip
	{
		OFFSET 0.058581 -0.082280 -0.017664
		CHANNELS 3 Zrotation Yrotation Xrotation
		JOINT lknee
		{
			OFFSET 0.043451 -0.386469 0.008037
			CHANNELS 3 Zrotation Yrotation Xrotation
			JOINT lankle
			{
				OFFSET -0.014790 -0.426874 -0.037428
				CHANNELS 3 Zrotation Yrotation Xrotation
				JOINT ltoe
				{
					OFFSET 0.041054 -0.060286 0.122042
					CHANNELS 3 Zrotation Yrotation Xrotation
					End Site
					{
						OFFSET 0.000000 0.000000 0.000000
					}
				}
			}
		}
	}
	JOINT rhip
	{
		OFFSET -0.060310 -0.090513 -0.013543
		CHANNELS 3 Zrotation Yrotation Xrotation
		JOINT rknee
		{
			OFFSET -0.043257 -0.383688 -0.004843
			CHANNELS 3 Zrotation Yrotation Xrotation
			JOINT rankle
			{
				OFFSET 0.019056 -0.420046 -0.034562
				CHANNELS 3 Zrotation Yrotation Xrotation
				JOINT rtoe
				{
					OFFSET -0.034840 -0.062106 0.130323
					CHANNELS 3 Zrotation Yrotation Xrotation
					End Site
					{
						OFFSET 0.000000 0.000000 0.000000
					}
				}
			}
		}
	}
	JOINT lowerback
	{
		OFFSET 0.004439 0.124404 -0.038385
		CHANNELS 3 Zrotation Yrotation Xrotation
		JOINT upperback
		{
			OFFSET 0.004488 0.137956 0.026820
			CHANNELS 3 Zrotation Yrotation Xrotation
			JOINT chest
			{
				OFFSET -0.002265 0.056032 0.002855
				CHANNELS 3 Zrotation Yrotation Xrotation
				JOINT lowerneck
				{
					OFFSET -0.013390 0.211636 -0.033468
					CHANNELS 3 Zrotation Yrotation Xrotation
					JOINT upperneck
					{
						OFFSET 0.010113 0.088937 0.050410
						CHANNELS 3 Zrotation Yrotation Xrotation
						End Site
						{
							OFFSET 0.000000 0.000000 0.000000
						}
					}
				}
				JOINT lclavicle
				{
					OFFSET 0.071702 0.114000 -0.018898
					CHANNELS 3 Zrotation Yrotation Xrotation
					JOINT lshoulder
					{
						OFFSET 0.122921 0.045205 -0.019046
						CHANNELS 3 Zrotation Yrotation Xrotation
						JOINT lelbow
						{
							OFFSET 0.255332 -0.015649 -0.022946
							CHANNELS 3 Zrotation Yrotation Xrotation
							JOINT lwrist
							{
								OFFSET 0.265709 0.012698 -0.007375
								CHANNELS 3 Zrotation Yrotation Xrotation
								End Site
								{
									OFFSET 0.000000 0.000000 0.000000
								}
							}
						}
					}
				}
				JOINT rclavicle
				{
					OFFSET -0.082954 0.112472 -0.023707
					CHANNELS 3 Zrotation Yrotation Xrotation
					JOINT rshoulder
					{
						OFFSET -0.113228 0.046853 -0.008472
						CHANNELS 3 Zrotation Yrotation Xrotation
						JOINT relbow
						{
							OFFSET -0.260127 -0.014369 -0.031269
							CHANNELS 3 Zrotation Yrotation Xrotation
							JOINT rwrist
							{
								OFFSET -0.269108 0.006794 -0.006027
								CHANNELS 3 Zrotation Yrotation Xrotation
								End Site
								{
									OFFSET 0.000000 0.000000 0.000000
								}
							}
						}
					}
				}
			}
		}
	}
}
MOTION
Frames: 11
Frame Time: 0.033333
0.297379 0.209522 0.991244 66.071174 4.546759 103.005484 10.087484 14.639166 -14.861597 -5.326394 10.216978 11.267996 -0.074417 13.297334 -4.621216 0.000000 -0.000000 0.000000 -3.188790 2.653383 -25.460312 1.432748 9.773279 6.941155 8.739126 -1.858290 1.213926 0.000000 -0.000000 0.000000 -14.156681 -7.272106 21.309706 1.870875 -16.815265 11.292157 3.179853 -10.674353 -8.467250 -23.463959 22.829180 -0.931930 -1.788017 -4.728437 -23.701832 -1.932032 -9.890051 5.627772 -11.453969 -19.133183 -6.039106 12.063428 -4.619673 5.758206 1.860567 -12.357545 30.685507 16.256607 -6.543990 -1.049599 59.458694 -9.275821 -6.030891 -50.333300 48.413022 -63.380752 -11.259849 4.431439 -47.239349 
0.297132 0.208605 0.991060 65.990089 4.695624 102.960363 10.310729 14.804456 -14.800268 -5.194361 10.120872 11.507853 -0.299746 13.242491 -5.082269 0.000000 -0.000000 0.000000 -2.927477 2.831379 -25.467607 1.313798 9.816882 7.110008 9.081898 -1.790868 1.117364 0.000000 -0.000000 0.000000 -14.402808 -7.626770 22.130239 1.013377 -16.174715 8.440630 2.545647 -10.303334 -7.326050 -22.308387 20.408575 -1.259482 -2.803441 -3.608047 -23.430502 -4.260355 -8.288430 4.393403 -12.705150 -18.635126 -3.240711 11.924189 -3.752564 8.480299 2.948473 -14.056144 28.847803 17.375106 -8.032918 -1.787086 55.856398 -9.544643 -7.196399 -58.044493 49.795945 -69.407042 -10.733708 5.015616 -52.794394 
0.296585 0.207817 0.989892 65.989025 4.647393 103.239003 10.467248 14.547121 -14.984699 -5.257649 10.724586 11.476941 -0.140785 13.046668 -5.056655 0.000000 -0.000000 0.000000 -3.030006 3.058738 -25.821567 1.284464 9.601798 7.248643 9.008350 -1.593598 1.124751 0.000000 -0.000000 0.000000 -14.916313 -7.615244 21.672422 0.791331 -16.191695 8.938557 2.319792 -10.324289 -8.280332 -22.963937 18.845498 -3.662561 -2.702858 -2.632864 -22.673453 -6.190077 -7.259121 5.042599 -14.920306 -15.029384 -0.115785 12.382269 -4.976400 7.128942 6.131476 -15.428718 23.603253 17.813845 -8.221765 -2.224251 51.604029 -9.313328 -8.126915 -67.102766 50.985948 -79.199041 -12.804152 5.215402 -53.125730 
0.297703 0.206441 0.989461 65.946251 4.788731 103.424477 10.529514 14.469451 -14.897337 -5.134882 10.292313 11.088860 -0.594778 13.584005 -5.021926 0.000000 -0.000000 0.000000 -2.847944 3.213132 -25.835689 1.218165 10.005220 7.078307 9.318338 -2.120155 0.931479 0.000000 -0.000000 0.000000 -15.024694 -7.714276 23.219566 0.164739 -15.735989 3.705151 2.343034 -10.232291 -5.935110 -21.864689 16.077652 -3.819636 -4.638883 -0.944388 -23.120026 -6.534989 -7.086996 7.013852 -20.314790 -9.773609 0.116644 14.105269 -9.440239 5.530154 7.511053 -16.478397 15.982255 16.992220 -8.452051 -2.744211 47.335086 -8.581002 -10.376683 -75.626611 51.669976 -85.121536 -12.943406 6.052064 -56.090910 
0.297877 0.205421 0.988410 65.984648 4.811543 103.507868 10.631192 14.208919 -14.912837 -5.145866 10.007356 10.864272 -0.498277 14.133714 -4.833455 0.000000 -0.000000 0.000000 -2.741010 3.185750 -25.904176 1.264796 10.463470 7.050401 9.067085 -2.542579 0.838115 0.000000 -0.000000 0.000000 -15.142095 -7.913021 23.310959 -0.544087 -15.499945 3.208403 1.700665 -9.595625 -6.195605 -20.982294 13.229739 -5.513009 -5.195022 1.166296 -22.508305 -8.255915 -5.730181 7.762165 -21.972867 -5.430490 2.162648 13.499441 -14.298436 6.142196 13.803140 -15.791759 10.033274 16.583382 -8.966485 -3.744961 42.130703 -6.425184 -12.294693 -82.651644 51.846970 -91.864978 -15.108014 5.219487 -56.216490 
0.298766 0.203786 0.987647 65.947129 4.799091 103.603641 10.750120 13.996017 -14.693959 -5.272621 9.830550 10.352700 -0.427316 14.627989 -4.634177 0.000000 -0.000000 0.000000 -2.584877 3.193394 -25.915228 1.183655 10.997861 7.010199 8.936432 -2.934518 0.735851 0.000000 -0.000000 0.000000 -15.185183 -8.091024 23.759119 -1.464929 -15.019231 1.183163 0.979609 -8.849310 -5.699736 -20.074954 9.967033 -6.404777 -5.184356 3.486131 -22.073713 -10.221050 -4.658547 8.304158 -23.469320 -0.357889 4.899024 13.296608 -19.281714 6.449090 19.755364 -14.675078 4.931994 15.663335 -8.827684 -4.337907 35.922250 -4.763805 -14.477072 -88.366805 51.290904 -98.065259 -15.923031 5.423040 -56.360497 
0.300372 0.201858 0.987486 66.026302 4.723081 103.789785 10.682338 13.817910 -14.495639 -5.259667 9.653895 9.722982 -0.648573 14.953320 -4.453060 0.000000 -0.000000 0.000000 -2.497087 3.124232 -25.843822 1.048922 11.337763 6.788946 9.054678 -3.258176 0.682553 0.000000 -0.000000 0.000000 -15.154972 -8.270380 23.928503 -2.596830 -14.458912 -1.641912 0.156013 -7.807541 -4.059612 -19.530632 6.929364 -6.294785 -4.851551 5.253418 -22.371623 -12.055883 -3.821234 8.064857 -25.066246 4.574692 7.412419 12.427227 -22.818369 8.071373 21.439413 -14.808643 1.234865 14.151125 -8.129659 -5.048203 28.957891 -3.088050 -17.103090 -92.381175 50.429238 -102.893112 -16.259990 6.008867 -55.417566 
0.301176 0.199980 0.987308 66.328062 4.698652 103.712069 10.728043 13.512808 -14.170718 -5.066059 9.805667 9.142111 -0.847568 14.828978 -4.175283 0.000000 -0.000000 0.000000 -2.346599 3.082948 -25.616198 0.889370 11.155264 6.757448 8.935675 -3.138371 0.641927 0.000000 -0.000000 0.000000 -14.950251 -8.035654 23.222242 -3.924849 -13.592295 -0.691944 -0.640281 -6.829604 -4.735624 -18.500267 4.606823 -5.916715 -4.692035 5.968890 -21.813675 -13.192297 -3.200665 7.213859 -26.944508 8.653039 9.583162 11.200406 -25.305246 9.731246 20.084327 -15.397761 -0.661053 11.963554 -7.123557 -5.528959 21.851529 -1.183116 -19.736821 -93.966499 48.452185 -105.893538 -15.687183 7.424455 -54.574717 
0.302473 0.198087 0.987992 66.961672 4.706918 103.556214 10.769405 13.221562 -13.757271 -4.847591 9.691584 8.520133 -1.175030 14.689540 -3.950150 0.000000 -0.000000 0.000000 -2.164841 2.922310 -25.143400 0.734929 10.992878 6.649664 8.940396 -3.183247 0.531206 0.000000 -0.000000 0.000000 -14.282468 -7.808391 22.775410 -5.500602 -12.509354 -1.271854 -1.620801 -5.786480 -4.028277 -17.779050 2.172142 -4.142085 -4.196315 6.769825 -21.502065 -14.210872 -2.802125 6.201215 -29.411954 12.523523 11.408603 10.698329 -27.394547 9.956858 19.596216 -15.792277 -2.908724 8.898363 -5.778420 -6.248355 14.819968 1.204182 -22.675175 -94.392087 46.778675 -107.720302 -15.581934 8.409737 -53.431072 
0.303551 0.196226 0.989144 68.069317 4.716955 103.187251 10.886727 12.888641 -13.139802 -4.751613 9.086297 7.738062 -1.483950 14.572906 -3.589199 0.000000 -0.000000 0.000000 -1.937938 2.630742 -24.316531 0.585598 10.808296 6.456532 8.896924 -3.481587 0.336957 0.000000 -0.000000 0.000000 -13.248655 -7.556131 22.689997 -7.013921 -11.327523 -2.401240 -2.840981 -4.406522 -2.654814 -16.853304 -1.014478 -1.799732 -3.349045 7.154617 -20.274038 -14.399295 -2.094582 4.445240 -32.428118 14.737616 13.441410 10.549375 -28.323226 11.633590 20.769389 -15.064722 -6.747677 5.396946 -4.613298 -7.503382 7.617202 4.983867 -25.804503 -93.792705 45.777574 -107.826564 -16.456456 8.742371 -52.214345 
0.304418 0.194246 0.990620 69.682458 4.725949 102.933849 11.048887 12.219352 -12.769604 -4.567199 8.700062 7.118411 -1.745317 13.986332 -3.215783 0.000000 -0.000000 0.000000 -1.756440 2.231041 -23.364774 0.381729 10.007998 6.107259 8.674232 -3.560022 0.247339 0.000000 -0.000000 0.000000 -11.841173 -7.241769 22.489798 -8.659572 -10.012855 -3.071977 -3.866426 -3.161678 -1.624345 -15.475116 -3.193095 1.377572 -2.988362 6.783509 -18.839252 -14.794361 -0.949949 2.220289 -35.160809 16.944973 14.677968 12.043955 -31.174349 7.816944 18.173807 -14.659836 -7.875079 1.546597 -3.033992 -8.498877 0.752951 9.192829 -28.121962 -92.679041 44.912114 -107.641548 -13.451920 10.461928 -52.113426 
